<?xml version="1.0" encoding="UTF-8"?> <svg xmlns="http://www.w3.org/2000/svg" xmlns:xlink="http://www.w3.org/1999/xlink" id="Layer_1" viewBox="0 0 446.41 128.74"><defs><style>.cls-1{fill:url(#linear-gradient);}.cls-2{fill:#19472b;}.cls-3{fill:#3d7727;}</style><linearGradient id="linear-gradient" x1="60.06" y1="50.91" x2="108.89" y2="50.91" gradientUnits="userSpaceOnUse"><stop offset=".43" stop-color="#19472b"></stop><stop offset=".92" stop-color="#7aa732"></stop></linearGradient></defs><path class="cls-3" d="M129.05,109.82c-1.36,0-2.56-.31-3.6-.93-1.04-.62-1.84-1.49-2.43-2.63s-.87-2.47-.87-4.01c0-1.13.17-2.16.51-3.09.34-.93.82-1.74,1.45-2.42.62-.68,1.36-1.21,2.2-1.58s1.77-.56,2.79-.56c1.09,0,2.01.15,2.76.46.74.31,1.42.74,2.02,1.31l-1.56,2.83c-.37-.42-.81-.73-1.32-.93-.51-.2-1.07-.31-1.69-.31s-1.16.1-1.64.3c-.48.2-.89.48-1.22.85-.33.37-.59.81-.76,1.33-.18.52-.26,1.11-.26,1.76,0,.88.16,1.64.47,2.27.32.63.77,1.12,1.36,1.45.59.34,1.29.51,2.11.51.59,0,1.17-.1,1.75-.3s1.13-.52,1.65-.96l1.43,2.91c-.61.52-1.33.94-2.18,1.26s-1.83.47-2.96.47Z"></path><path class="cls-3" d="M144.33,109.82c-1.01,0-1.94-.19-2.8-.58-.86-.39-1.6-.92-2.23-1.61-.63-.69-1.12-1.49-1.46-2.42-.35-.92-.52-1.92-.52-3s.17-2.09.52-3.01c.35-.92.83-1.73,1.46-2.42.63-.69,1.37-1.22,2.23-1.6.86-.38,1.79-.57,2.8-.57s1.94.2,2.79.58c.85.39,1.6.93,2.23,1.63.63.69,1.12,1.5,1.47,2.42.35.92.52,1.91.52,2.98s-.17,2.08-.52,3c-.35.92-.84,1.73-1.47,2.42-.63.69-1.37,1.23-2.23,1.61-.85.39-1.78.58-2.79.58ZM144.33,106.56c.54,0,1.04-.1,1.49-.3.46-.2.85-.49,1.19-.88s.6-.84.78-1.38c.18-.54.28-1.14.28-1.8,0-.88-.16-1.65-.49-2.3-.33-.65-.77-1.16-1.33-1.52s-1.2-.54-1.92-.54c-.54,0-1.03.1-1.49.3-.46.2-.85.49-1.19.88-.33.38-.6.84-.78,1.38-.19.54-.28,1.14-.28,1.8,0,.88.16,1.65.49,2.3.33.65.77,1.16,1.34,1.52.57.36,1.21.54,1.92.54Z"></path><path class="cls-3" d="M156.16,109.5v-14.6h2.99l4.99,9.21h-1.24s4.75-9.21,4.75-9.21h2.98v14.6h-3.02l.06-10.17.55.23-3.79,7.2h-2.07l-3.94-7.2.53-.23.06,10.17h-2.85Z"></path><path class="cls-3" d="M177.01,109.5v-14.6h2.99l4.99,9.21h-1.24s4.75-9.21,4.75-9.21h2.98v14.6h-3.02l.06-10.17.55.23-3.79,7.2h-2.07l-3.94-7.2.53-.23.06,10.17h-2.85Z"></path><path class="cls-3" d="M197.87,109.5v-14.6h9.23v3h-6.12v2.71h5.13v2.77h-5.13v3.08h6.19v3.03h-9.31Z"></path><path class="cls-3" d="M213.07,109.5v-14.6h5.33c.98,0,1.83.18,2.56.53s1.29.86,1.69,1.53c.4.66.6,1.46.6,2.4,0,.72-.12,1.35-.37,1.89-.24.54-.58,1-1,1.36s-.91.63-1.45.81l3.54,6.08h-3.7l-2.93-5.37h-1.15v5.37h-3.12ZM216.18,101.36h1.84c.65,0,1.16-.14,1.52-.43s.55-.73.55-1.35-.17-1.1-.52-1.39c-.35-.3-.84-.44-1.49-.44h-1.9v3.61Z"></path><path class="cls-3" d="M234.95,109.82c-1.36,0-2.56-.31-3.6-.93-1.04-.62-1.84-1.49-2.43-2.63-.58-1.13-.87-2.47-.87-4.01,0-1.13.17-2.16.51-3.09.34-.93.82-1.74,1.45-2.42.62-.68,1.36-1.21,2.2-1.58s1.77-.56,2.79-.56c1.09,0,2.01.15,2.76.46.74.31,1.42.74,2.02,1.31l-1.56,2.83c-.37-.42-.81-.73-1.32-.93-.51-.2-1.07-.31-1.69-.31s-1.16.1-1.64.3c-.48.2-.89.48-1.22.85-.33.37-.59.81-.76,1.33-.18.52-.26,1.11-.26,1.76,0,.88.16,1.64.47,2.27.32.63.77,1.12,1.36,1.45.59.34,1.29.51,2.11.51.59,0,1.17-.1,1.75-.3s1.13-.52,1.65-.96l1.43,2.91c-.61.52-1.33.94-2.18,1.26s-1.83.47-2.96.47Z"></path><path class="cls-3" d="M244.88,109.5v-14.6h3.12v14.6h-3.12Z"></path><path class="cls-3" d="M252.52,109.5l4.91-14.6h3.61l4.95,14.6h-3.51l-.93-2.95h-4.71l-.91,2.95h-3.42ZM257.55,103.65h3.28l-1.65-5.05-1.63,5.05Z"></path><path class="cls-3" d="M270.52,109.5v-14.6h3.12v11.44h5.27v3.16h-8.39Z"></path><path class="cls-3" d="M290.8,109.5v-14.6h5.33c.97,0,1.83.18,2.56.53.73.35,1.29.86,1.69,1.53.4.66.6,1.46.6,2.4,0,.72-.12,1.35-.37,1.89-.24.54-.58,1-1,1.36s-.91.63-1.44.81l3.54,6.08h-3.7l-2.93-5.37h-1.15v5.37h-3.12ZM293.92,101.36h1.84c.65,0,1.16-.14,1.52-.43.37-.29.55-.73.55-1.35s-.17-1.1-.52-1.39c-.35-.3-.84-.44-1.49-.44h-1.9v3.61Z"></path><path class="cls-3" d="M306.6,109.5v-14.6h9.23v3h-6.12v2.71h5.13v2.77h-5.13v3.08h6.19v3.03h-9.31Z"></path><path class="cls-3" d="M320.32,109.5l4.91-14.6h3.61l4.95,14.6h-3.51l-.93-2.95h-4.71l-.91,2.95h-3.41ZM325.35,103.65h3.28l-1.65-5.05-1.63,5.05Z"></path><path class="cls-3" d="M338.69,109.5v-14.6h3.12v11.44h5.27v3.16h-8.39Z"></path><path class="cls-3" d="M360.1,109.5v-14.6h9.23v3h-6.12v2.71h5.13v2.77h-5.13v3.08h6.19v3.03h-9.31Z"></path><path class="cls-3" d="M379.51,109.82c-.99,0-1.96-.16-2.9-.49s-1.74-.8-2.39-1.42l1.47-2.58c.28.33.63.61,1.05.84.43.24.88.42,1.36.55.49.13.96.19,1.41.19.64,0,1.16-.12,1.57-.36.41-.24.61-.59.61-1.05,0-.38-.15-.69-.44-.94-.29-.25-.83-.5-1.62-.74l-1.13-.34c-1.36-.42-2.33-.99-2.92-1.71-.59-.72-.89-1.6-.89-2.62,0-.65.12-1.26.37-1.81s.6-1.03,1.05-1.44c.45-.41.98-.72,1.59-.94.61-.22,1.27-.33,1.99-.33.99,0,1.92.16,2.77.48s1.54.76,2.06,1.31l-1.52,2.5c-.24-.28-.53-.52-.88-.73-.35-.21-.73-.37-1.15-.49-.41-.12-.83-.18-1.25-.18s-.77.06-1.08.18c-.31.12-.54.29-.72.51s-.26.48-.26.78c0,.24.06.44.19.6.13.16.34.32.65.46.3.15.71.31,1.23.48l1.15.37c1.34.44,2.32.99,2.92,1.65.6.66.9,1.52.9,2.58,0,.92-.21,1.74-.64,2.44-.43.71-1.03,1.26-1.81,1.65s-1.7.59-2.77.59Z"></path><path class="cls-3" d="M392.13,109.5v-11.44h-3.5v-3.16h10.13v3.16h-3.5v11.44h-3.13Z"></path><path class="cls-3" d="M401.25,109.5l4.91-14.6h3.61l4.95,14.6h-3.51l-.93-2.95h-4.71l-.91,2.95h-3.42ZM406.28,103.65h3.28l-1.65-5.05-1.63,5.05Z"></path><path class="cls-3" d="M421.55,109.5v-11.44h-3.5v-3.16h10.13v3.16h-3.5v11.44h-3.13Z"></path><path class="cls-3" d="M433,109.5v-14.6h9.23v3h-6.12v2.71h5.13v2.77h-5.13v3.08h6.19v3.03h-9.31Z"></path><path class="cls-2" d="M141.36,79.49l-18.98-51.5h13.76l12.32,35.98,12.1-35.98h13.54l-18.84,51.5h-13.91Z"></path><path class="cls-2" d="M185.76,79.49V27.99h36.2v10.59h-23.99v9.57h20.12v9.78h-20.12v10.85h24.28v10.7h-36.49Z"></path><path class="cls-2" d="M260.87,80.6c-5.35,0-10.05-1.09-14.11-3.27-4.06-2.18-7.23-5.27-9.51-9.27s-3.42-8.72-3.42-14.16c0-3.97.67-7.61,2-10.91,1.34-3.3,3.22-6.15,5.67-8.55,2.44-2.4,5.32-4.26,8.63-5.57,3.31-1.31,6.95-1.97,10.93-1.97,4.29,0,7.9.55,10.82,1.64,2.92,1.09,5.55,2.63,7.91,4.62l-6.11,10.01c-1.45-1.47-3.17-2.57-5.17-3.29-2-.72-4.21-1.09-6.64-1.09s-4.54.35-6.42,1.05c-1.88.7-3.47,1.7-4.78,3-1.31,1.3-2.31,2.87-3,4.71-.69,1.84-1.03,3.91-1.03,6.22,0,3.11.62,5.79,1.86,8.02,1.24,2.23,3.01,3.94,5.32,5.13s5.06,1.78,8.28,1.78c2.3,0,4.59-.35,6.86-1.05,2.27-.7,4.42-1.83,6.46-3.4l5.59,10.26c-2.38,1.84-5.22,3.32-8.54,4.43-3.31,1.12-7.17,1.67-11.59,1.67Z"></path><path class="cls-2" d="M302.04,79.49v-40.35h-13.72v-11.15h39.73v11.15h-13.72v40.35h-12.29Z"></path><path class="cls-2" d="M361.49,80.6c-3.95,0-7.6-.68-10.96-2.04-3.36-1.36-6.27-3.26-8.74-5.68-2.46-2.43-4.38-5.27-5.74-8.53-1.36-3.26-2.04-6.79-2.04-10.59s.68-7.37,2.04-10.63c1.36-3.26,3.27-6.11,5.74-8.53,2.46-2.43,5.38-4.32,8.74-5.67,3.36-1.35,7.01-2.02,10.96-2.02s7.6.69,10.94,2.06c3.35,1.37,6.26,3.29,8.74,5.74,2.48,2.45,4.39,5.3,5.76,8.55,1.36,3.25,2.04,6.75,2.04,10.5s-.68,7.33-2.04,10.59c-1.36,3.26-3.28,6.11-5.76,8.53-2.48,2.43-5.39,4.32-8.74,5.68-3.35,1.36-6.99,2.04-10.94,2.04ZM361.49,69.12c2.11,0,4.06-.36,5.85-1.07s3.35-1.74,4.67-3.09c1.32-1.35,2.35-2.97,3.07-4.87s1.09-4.02,1.09-6.35c0-3.11-.64-5.82-1.91-8.13-1.28-2.31-3.02-4.09-5.22-5.35-2.21-1.26-4.72-1.89-7.54-1.89-2.11,0-4.06.36-5.85,1.07-1.79.71-3.34,1.74-4.65,3.09-1.31,1.35-2.34,2.97-3.07,4.86-.74,1.89-1.1,4.01-1.1,6.36,0,3.11.64,5.82,1.91,8.13s3.02,4.09,5.24,5.35c2.22,1.26,4.73,1.89,7.52,1.89Z"></path><path class="cls-2" d="M399.38,79.49V27.99h20.89c3.83,0,7.17.63,10.02,1.88s5.06,3.05,6.62,5.39c1.56,2.34,2.34,5.17,2.34,8.48,0,2.53-.48,4.75-1.43,6.66s-2.27,3.51-3.94,4.8c-1.67,1.29-3.56,2.24-5.67,2.85l13.87,21.45h-14.49l-11.48-18.95h-4.52v18.95h-12.21ZM411.59,50.76h7.21c2.55,0,4.54-.5,5.98-1.51,1.43-1.01,2.15-2.59,2.15-4.75s-.68-3.87-2.04-4.91-3.31-1.56-5.83-1.56h-7.47v12.73Z"></path><polygon class="cls-1" points="73.97 85.17 108.89 16.66 81.41 16.66 60.06 58.53 73.97 85.17"></polygon><path class="cls-2" d="M29.01,21.84l35.52,69.68-8.07,15.27L13.16,21.84h15.85M32.19,16.66H4.7l51.68,101.39,13.99-26.49L32.19,16.66h0Z"></path></svg> 